<svg width="918" height="880" viewBox="0 0 918 880" fill="none" xmlns="http://www.w3.org/2000/svg">
<rect width="918" height="880" rx="20" fill="#31302D"/>
<path d="M133 603.2C112.733 603.2 95 599.467 79.8 592C64.8667 584.267 53.2667 573.6 45 560C36.7333 546.133 32.6 530.133 32.6 512V486.8C32.6 485.467 33 484.4 33.8 483.6C34.8667 482.533 36.0667 482 37.4 482H84.2C85.5333 482 86.6 482.533 87.4 483.6C88.4667 484.4 89 485.467 89 486.8V512C89 524.8 92.8667 535.2 100.6 543.2C108.6 550.933 119.4 554.8 133 554.8C146.067 554.8 156.733 550.933 165 543.2C173.533 535.2 177.8 524.8 177.8 512V324.8C177.8 323.467 178.2 322.4 179 321.6C180.067 320.533 181.267 320 182.6 320H229C230.333 320 231.4 320.533 232.2 321.6C233.267 322.4 233.8 323.467 233.8 324.8V512C233.8 530.133 229.533 546.133 221 560C212.467 573.6 200.6 584.267 185.4 592C170.2 599.467 152.733 603.2 133 603.2ZM287.403 600C286.07 600 284.87 599.6 283.803 598.8C283.003 597.733 282.603 596.533 282.603 595.2V324.8C282.603 323.467 283.003 322.4 283.803 321.6C284.87 320.533 286.07 320 287.403 320H334.203C335.536 320 336.603 320.533 337.403 321.6C338.47 322.4 339.003 323.467 339.003 324.8V549.6C339.003 550.933 339.67 551.6 341.003 551.6H471.803C473.136 551.6 474.203 552.133 475.003 553.2C476.07 554 476.603 555.067 476.603 556.4V595.2C476.603 596.533 476.07 597.733 475.003 598.8C474.203 599.6 473.136 600 471.803 600H287.403ZM665.109 600C662.443 600 660.576 598.8 659.509 596.4L609.509 485.6C608.976 484.533 608.176 484 607.109 484H569.909C568.576 484 567.909 484.667 567.909 486V595.2C567.909 596.533 567.376 597.733 566.309 598.8C565.509 599.6 564.443 600 563.109 600H516.309C514.976 600 513.776 599.6 512.709 598.8C511.909 597.733 511.509 596.533 511.509 595.2V324.8C511.509 323.467 511.909 322.4 512.709 321.6C513.776 320.533 514.976 320 516.309 320H630.709C647.776 320 662.709 323.467 675.509 330.4C688.576 337.333 698.576 347.2 705.509 360C712.709 372.8 716.309 387.6 716.309 404.4C716.309 422.533 711.776 438.133 702.709 451.2C693.643 464 680.976 473.067 664.709 478.4C663.376 478.933 662.976 479.867 663.509 481.2L717.909 594.4C718.443 595.467 718.709 596.267 718.709 596.8C718.709 598.933 717.243 600 714.309 600H665.109ZM569.909 368.4C568.576 368.4 567.909 369.067 567.909 370.4V438.8C567.909 440.133 568.576 440.8 569.909 440.8H622.309C633.509 440.8 642.576 437.467 649.509 430.8C656.709 424.133 660.309 415.467 660.309 404.8C660.309 394.133 656.709 385.467 649.509 378.8C642.576 371.867 633.509 368.4 622.309 368.4H569.909Z" fill="#F9EDE8"/>
<path d="M801.213 442.8C799.879 442.8 798.679 442.4 797.613 441.6C796.813 440.533 796.413 439.333 796.413 438L796.813 402C796.813 401.2 796.546 400.667 796.013 400.4C795.479 400.133 794.946 400.267 794.413 400.8L760.813 420.4C759.746 420.933 758.946 421.2 758.413 421.2C756.546 421.2 755.079 420.267 754.013 418.4L742.813 397.6C742.279 396.533 742.013 395.6 742.013 394.8C742.013 392.933 742.946 391.6 744.813 390.8L778.413 372.8C779.746 372 779.746 371.2 778.413 370.4L744.813 353.2C743.479 352.667 742.546 351.733 742.013 350.4C741.746 349.067 742.013 347.733 742.813 346.4L754.013 325.6C754.813 324.267 755.746 323.467 756.813 323.2C758.146 322.667 759.479 322.8 760.813 323.6L794.413 342.8C794.946 343.067 795.479 343.067 796.013 342.8C796.546 342.533 796.813 342 796.813 341.2L796.413 306C796.413 304.667 796.813 303.6 797.613 302.8C798.679 301.733 799.879 301.2 801.213 301.2H824.013C825.346 301.2 826.413 301.733 827.213 302.8C828.279 303.6 828.813 304.667 828.813 306L828.413 341.2C828.413 342 828.679 342.533 829.213 342.8C829.746 343.067 830.279 343.067 830.813 342.8L864.413 323.6C865.479 323.067 866.279 322.8 866.813 322.8C868.679 322.8 870.146 323.733 871.213 325.6L882.413 346.4C882.946 347.467 883.213 348.4 883.213 349.2C883.213 350.8 882.279 352 880.413 352.8L846.413 370.4C845.079 371.2 845.079 372 846.413 372.8L880.413 390.8C881.746 391.333 882.546 392.267 882.813 393.6C883.346 394.933 883.213 396.267 882.413 397.6L871.213 418.4C870.413 419.733 869.346 420.667 868.013 421.2C866.946 421.467 865.746 421.2 864.413 420.4L830.813 400.8C830.279 400.267 829.746 400.133 829.213 400.4C828.679 400.667 828.413 401.2 828.413 402L828.813 438C828.813 439.333 828.279 440.533 827.213 441.6C826.413 442.4 825.346 442.8 824.013 442.8H801.213Z" fill="#C6BF8B"/>
</svg>
